<svg width="25" height="25" viewBox="0 0 25 25" fill="none" xmlns="http://www.w3.org/2000/svg">
<path d="M22.1339 12.21C22.1339 11.4409 21.5104 10.8174 20.7413 10.8174H13.778V3.85408C13.778 3.08494 13.1545 2.46143 12.3853 2.46143C11.6162 2.46143 10.9927 3.08494 10.9927 3.85408V10.8174H4.02938C3.26023 10.8174 2.63672 11.4409 2.63672 12.21C2.63672 12.9792 3.26023 13.6027 4.02938 13.6027H10.9927V20.566C10.9927 21.3351 11.6162 21.9586 12.3853 21.9586C13.1545 21.9586 13.778 21.3351 13.778 20.566V13.6027H20.7413C21.5104 13.6027 22.1339 12.9792 22.1339 12.21Z" fill="white"/>
</svg>
